<svg width="18" height="16" viewBox="0 0 18 16" fill="none" xmlns="http://www.w3.org/2000/svg">
<path d="M6.36201 5.15794C6.36201 5.15794 3.20201 5.50794 1.09401 5.74194C0.904012 5.76494 0.736012 5.89194 0.673012 6.08494C0.610012 6.27794 0.673012 6.47894 0.813012 6.60594C2.37901 8.03494 4.73201 10.1749 4.73201 10.1749C4.73001 10.1749 4.08601 13.2879 3.65801 15.3649C3.62201 15.5529 3.69001 15.7519 3.85401 15.8709C4.01701 15.9899 4.22701 15.9919 4.39201 15.8989C6.23601 14.8509 8.99801 13.2749 8.99801 13.2749C8.99801 13.2749 11.761 14.8509 13.602 15.8999C13.77 15.9919 13.98 15.9899 14.143 15.8709C14.307 15.7519 14.375 15.5529 14.338 15.3659C13.91 13.2879 13.267 10.1749 13.267 10.1749C13.267 10.1749 15.62 8.03494 17.186 6.60894C17.326 6.47794 17.388 6.27694 17.326 6.08494C17.264 5.89294 17.096 5.76594 16.906 5.74394C14.798 5.50794 11.637 5.15794 11.637 5.15794C11.637 5.15794 10.327 2.25994 9.45401 0.327936C9.37201 0.154936 9.20001 0.0339355 8.99801 0.0339355C8.79601 0.0339355 8.62301 0.155936 8.54501 0.327936C7.67101 2.25994 6.36201 5.15794 6.36201 5.15794Z" fill="#F5CE42"/>
</svg>
